# Blender 5.1.0
# www.blender.org
mtllib thunder_mesh.mtl
o Plane
v -0.219657 0.220859 -0.205592
v 0.369012 0.219532 1.029856
v -0.263729 13.354061 -0.183058
v 1.199823 13.354061 1.006585
v -0.128323 12.755816 0.204639
v -0.522029 12.184764 0.384616
v -1.586451 11.705154 0.301239
v -2.057780 11.425636 0.050739
v -1.734584 10.573874 0.352835
v -0.928919 9.900557 0.411772
v -0.522706 9.131626 0.595807
v -0.120545 8.477612 0.614050
v -0.360784 8.003717 0.518330
v -0.932216 7.616348 0.411764
v -1.676226 7.045296 0.228331
v -1.890159 6.474244 -0.403655
v -1.676226 5.903192 0.228331
v -0.922750 5.332139 0.411764
v -0.355308 4.761087 0.476738
v 0.129610 4.190036 0.848666
v 0.299432 3.620497 1.317249
v 0.344911 3.064692 0.628130
v 0.712344 2.503850 0.540146
v 0.386504 1.921405 0.788181
v -0.488250 1.550355 0.358594
v -0.544037 0.858225 0.009750
v 0.601687 0.698063 0.850628
v 1.123970 1.122223 0.493603
v 2.220019 1.917032 0.064512
v 2.624346 2.504550 0.197046
v 2.136319 3.064692 -0.229265
v 1.229477 3.620497 -0.490332
v 1.831427 4.190035 -0.304557
v 1.674657 4.761086 0.359289
v 1.078039 5.332139 0.411797
v 0.296157 5.903192 0.985660
v -0.261533 6.474243 1.227182
v 0.296157 7.045295 0.985659
v 1.067785 7.616348 0.411764
v 1.603915 8.301340 0.291650
v 1.755845 9.039291 0.209477
v 1.441992 9.429251 0.369126
v 1.065570 9.894953 0.417358
v 0.321253 10.167569 0.687881
v 0.266746 10.578761 0.765893
v 0.545911 11.323097 0.581084
v 1.362208 12.184764 0.436309
v 1.571514 12.755816 0.825402
v -0.936583 0.073884 1.436513
v 1.063417 0.073884 1.436513
v -0.936583 0.073884 -0.563487
v 1.063417 0.073884 -0.563487
v 0.063417 0.073884 -0.158981
v 0.063417 1.496875 -2.290882
v 0.179592 0.073884 -0.147539
v 0.595505 1.496875 -2.238476
v 0.291303 0.073884 -0.113652
v 1.107146 1.496875 -2.083271
v 0.394256 0.073884 -0.058622
v 1.578676 1.496875 -1.831233
v 0.484495 0.073884 0.015435
v 1.991976 1.496875 -1.492046
v 0.558552 0.073884 0.105674
v 2.331162 1.496875 -1.078747
v 0.613581 0.073884 0.208627
v 2.583201 1.496875 -0.607216
v 0.647468 0.073884 0.320338
v 2.738405 1.496875 -0.095575
v 0.658911 0.073884 0.436513
v 2.790811 1.496875 0.436513
v 0.647468 0.073884 0.552688
v 2.738405 1.496875 0.968601
v 0.613581 0.073884 0.664398
v 2.583201 1.496875 1.480241
v 0.558552 0.073884 0.767351
v 2.331162 1.496875 1.951772
v 0.484495 0.073884 0.857590
v 1.991976 1.496875 2.365072
v 0.394256 0.073884 0.931648
v 1.578676 1.496875 2.704258
v 0.291303 0.073884 0.986677
v 1.107146 1.496875 2.956296
v 0.179592 0.073884 1.020564
v 0.595505 1.496875 3.111501
v 0.063417 0.073884 1.032007
v 0.063417 1.496875 3.163907
v -0.052758 0.073884 1.020564
v -0.468671 1.496875 3.111501
v -0.164469 0.073884 0.986677
v -0.980312 1.496875 2.956296
v -0.267422 0.073884 0.931648
v -1.451842 1.496875 2.704258
v -0.357661 0.073884 0.857590
v -1.865142 1.496875 2.365072
v -0.431718 0.073884 0.767351
v -2.204329 1.496875 1.951772
v -0.486748 0.073884 0.664398
v -2.456367 1.496875 1.480241
v -0.520635 0.073884 0.552688
v -2.611571 1.496875 0.968601
v -0.532077 0.073884 0.436513
v -2.663977 1.496875 0.436513
v -0.520635 0.073884 0.320338
v -2.611571 1.496875 -0.095575
v -0.486748 0.073884 0.208627
v -2.456367 1.496875 -0.607216
v -0.431718 0.073884 0.105674
v -2.204329 1.496875 -1.078747
v -0.357661 0.073884 0.015435
v -1.865142 1.496875 -1.492046
v -0.267422 0.073884 -0.058622
v -1.451842 1.496875 -1.831233
v -0.164469 0.073884 -0.113652
v -0.980312 1.496875 -2.083271
v -0.052758 0.073884 -0.147539
v -0.468671 1.496875 -2.238476
vn -0.7680 -0.0837 0.6350
vn -0.4958 -0.0606 0.8663
vn -0.3452 -0.0724 0.9357
vn -0.0872 0.1051 0.9906
vn -0.1919 0.0828 0.9779
vn -0.1994 0.1019 0.9746
vn -0.1998 0.1012 0.9746
vn -0.0785 -0.2694 0.9598
vn 0.0622 0.1158 0.9913
vn 0.1711 -0.0417 0.9844
vn 0.0790 -0.0530 0.9955
vn -0.1226 0.4102 0.9037
vn -0.5431 0.0987 0.8338
vn -0.5527 -0.0000 0.8334
vn -0.5431 -0.0988 0.8338
vn -0.1308 -0.4198 0.8981
vn 0.0862 0.0212 0.9961
vn 0.5287 -0.0894 0.8441
vn 0.7372 -0.0232 0.6752
vn 0.6342 0.3258 0.7012
vn 0.2819 0.0779 0.9563
vn 0.1631 -0.2006 0.9660
vn -0.2394 0.1059 0.9651
vn -0.6326 0.0013 0.7745
vn -0.5428 0.0498 0.8384
vn 0.0304 -0.1385 0.9899
vn 0.2697 -0.0797 0.9596
vn 0.2834 0.1302 0.9501
vn 0.4179 0.4196 0.8057
vn 0.7304 0.0376 0.6819
vn 0.5529 -0.0927 0.8281
vn 0.3005 -0.0532 0.9523
vn 0.0177 0.0074 0.9998
vn -0.3807 -0.3003 0.8746
vn -0.3807 0.2993 0.8749
vn 0.0469 -0.0143 0.9988
vn 0.1679 -0.0668 0.9835
vn 0.1728 -0.0497 0.9837
vn 0.1600 -0.0110 0.9871
vn 0.0364 0.1086 0.9934
vn -0.1646 -0.1464 0.9754
vn -0.1982 0.0947 0.9756
vn -0.1007 0.1258 0.9869
vn -0.1735 -0.0617 0.9829
vn -0.3566 -0.0716 0.9315
vn -0.0000 1.0000 -0.0000
vn -0.0000 0.8317 0.5552
vn -0.1083 0.8317 0.5445
vn -0.2125 0.8317 0.5129
vn -0.3084 0.8317 0.4616
vn -0.3926 0.8317 0.3926
vn -0.4616 0.8317 0.3084
vn -0.5129 0.8317 0.2125
vn -0.5445 0.8317 0.1083
vn -0.5552 0.8317 -0.0000
vn -0.5445 0.8317 -0.1083
vn -0.5129 0.8317 -0.2125
vn -0.4616 0.8317 -0.3084
vn -0.3926 0.8317 -0.3926
vn -0.3084 0.8317 -0.4616
vn -0.2125 0.8317 -0.5129
vn -0.1083 0.8317 -0.5445
vn -0.0000 0.8317 -0.5552
vn 0.1083 0.8317 -0.5445
vn 0.2125 0.8317 -0.5129
vn 0.3084 0.8317 -0.4616
vn 0.3926 0.8317 -0.3926
vn 0.4616 0.8317 -0.3084
vn 0.5129 0.8317 -0.2125
vn 0.5445 0.8317 -0.1083
vn 0.5552 0.8317 -0.0000
vn 0.5445 0.8317 0.1083
vn 0.5129 0.8317 0.2125
vn 0.4616 0.8317 0.3084
vn 0.3926 0.8317 0.3926
vn 0.3084 0.8317 0.4616
vn 0.2125 0.8317 0.5129
vn 0.1083 0.8317 0.5445
vt 0.000000 0.954451
vt 1.000000 0.954451
vt 1.000000 1.000000
vt 0.000000 1.000000
vt 0.000000 0.000000
vt 1.000000 0.000000
vt 1.000000 0.041408
vt 0.000000 0.041408
vt 1.000000 0.084886
vt 0.000000 0.084886
vt 1.000000 0.128364
vt 0.000000 0.128364
vt 1.000000 0.171843
vt 0.000000 0.171843
vt 1.000000 0.215321
vt 0.000000 0.215321
vt 1.000000 0.258799
vt 0.000000 0.258799
vt 1.000000 0.302277
vt 0.000000 0.302277
vt 1.000000 0.345756
vt 0.000000 0.345756
vt 1.000000 0.389234
vt 0.000000 0.389234
vt 1.000000 0.432712
vt 0.000000 0.432712
vt 1.000000 0.476190
vt 0.000000 0.476191
vt 1.000000 0.519669
vt 0.000000 0.519669
vt 1.000000 0.563147
vt 0.000000 0.563147
vt 1.000000 0.606625
vt 0.000000 0.606625
vt 1.000000 0.650103
vt 0.000000 0.650104
vt 1.000000 0.693582
vt 0.000000 0.693582
vt 1.000000 0.737060
vt 0.000000 0.737060
vt 1.000000 0.780538
vt 0.000000 0.780538
vt 1.000000 0.824017
vt 0.000000 0.824017
vt 1.000000 0.867495
vt 0.000000 0.867495
vt 1.000000 0.910973
vt 0.000000 0.910973
s 1
usemtl Material.001
f 5/1/3 48/2/45 4/3/2 3/4/2
f 1/5/1 2/6/1 27/7/25 26/8/24
f 26/8/24 27/7/25 28/9/26 25/10/23
f 25/10/23 28/9/26 29/11/27 24/12/22
f 24/12/22 29/11/27 30/13/28 23/14/21
f 23/14/21 30/13/28 31/15/29 22/16/20
f 22/16/20 31/15/29 32/17/30 21/18/19
f 21/18/19 32/17/30 33/19/31 20/20/18
f 20/20/18 33/19/31 34/21/32 19/22/17
f 19/22/17 34/21/32 35/23/33 18/24/16
f 18/24/16 35/23/33 36/25/34 17/26/15
f 17/26/15 36/25/34 37/27/14 16/28/14
f 16/28/14 37/27/14 38/29/35 15/30/13
f 15/30/13 38/29/35 39/31/36 14/32/12
f 14/32/12 39/31/36 40/33/37 13/34/11
f 13/34/11 40/33/37 41/35/38 12/36/10
f 12/36/10 41/35/38 42/37/39 11/38/9
f 11/38/9 42/37/39 43/39/40 10/40/8
f 10/40/8 43/39/40 44/41/41 9/42/7
f 9/42/7 44/41/41 45/43/42 8/44/6
f 8/44/6 45/43/42 46/45/43 7/46/5
f 7/46/5 46/45/43 47/47/44 6/48/4
f 6/48/4 47/47/44 48/2/45 5/1/3
usemtl Material.003
f 49/5/46 50/6/46 52/3/46 51/4/46
usemtl Material.002
f 53/5/47 55/5/48 56/5/48 54/5/47
f 55/5/48 57/5/49 58/5/49 56/5/48
f 57/5/49 59/5/50 60/5/50 58/5/49
f 59/5/50 61/5/51 62/5/51 60/5/50
f 61/5/51 63/5/52 64/5/52 62/5/51
f 63/5/52 65/5/53 66/5/53 64/5/52
f 65/5/53 67/5/54 68/5/54 66/5/53
f 67/5/54 69/5/55 70/5/55 68/5/54
f 69/5/55 71/5/56 72/5/56 70/5/55
f 71/5/56 73/5/57 74/5/57 72/5/56
f 73/5/57 75/5/58 76/5/58 74/5/57
f 75/5/58 77/5/59 78/5/59 76/5/58
f 77/5/59 79/5/60 80/5/60 78/5/59
f 79/5/60 81/5/61 82/5/61 80/5/60
f 81/5/61 83/5/62 84/5/62 82/5/61
f 83/5/62 85/5/63 86/5/63 84/5/62
f 85/5/63 87/5/64 88/5/64 86/5/63
f 87/5/64 89/5/65 90/5/65 88/5/64
f 89/5/65 91/5/66 92/5/66 90/5/65
f 91/5/66 93/5/67 94/5/67 92/5/66
f 93/5/67 95/5/68 96/5/68 94/5/67
f 95/5/68 97/5/69 98/5/69 96/5/68
f 97/5/69 99/5/70 100/5/70 98/5/69
f 99/5/70 101/5/71 102/5/71 100/5/70
f 101/5/71 103/5/72 104/5/72 102/5/71
f 103/5/72 105/5/73 106/5/73 104/5/72
f 105/5/73 107/5/74 108/5/74 106/5/73
f 107/5/74 109/5/75 110/5/75 108/5/74
f 109/5/75 111/5/76 112/5/76 110/5/75
f 111/5/76 113/5/77 114/5/77 112/5/76
f 113/5/77 115/5/78 116/5/78 114/5/77
f 115/5/78 53/5/47 54/5/47 116/5/78
